<!--
COLLECTION: Basicons Interface Line Icons
LICENSE: MIT License
AUTHOR: basicons
LINK: https://www.svgrepo.com/svg/379924/alert-octagon-error

COLLECTION: Gentlecons Interface Icons
LICENSE: CC Attribution License
AUTHOR: Konstantin Filatov
LINK: https://www.svgrepo.com/svg/521590/cross
-->
<svg xmlns="http://www.w3.org/2000/svg" viewBox="0 0 24 24" fill="none" width="28">
    <title>Error</title>
    <path stroke="#f31559" stroke-width="2" stroke-linecap="round" stroke-linejoin="round" d="M16 2H8L2 8V16L8 22H16L22 16V8L16 2Z" />
    <path fill="#f31559" d="M6.99486 7.00636C6.60433 7.39689 6.60433 8.03005 6.99486 8.42058L10.58 12.0057L6.99486 15.5909C6.60433 15.9814 6.60433 16.6146 6.99486 17.0051C7.38538 17.3956 8.01855 17.3956 8.40907 17.0051L11.9942 13.4199L15.5794 17.0051C15.9699 17.3956 16.6031 17.3956 16.9936 17.0051C17.3841 16.6146 17.3841 15.9814 16.9936 15.5909L13.4084 12.0057L16.9936 8.42059C17.3841 8.03007 17.3841 7.3969 16.9936 7.00638C16.603 6.61585 15.9699 6.61585 15.5794 7.00638L11.9942 10.5915L8.40907 7.00636C8.01855 6.61584 7.38538 6.61584 6.99486 7.00636Z" />
</svg>