<!-- https://www.svgrepo.com/svg/340719/new-tab -->
<svg xmlns="http://www.w3.org/2000/svg" viewBox="0 0 32 32" fill="#fffbf5" width="16">
    <style>
        @media (prefers-color-scheme: light) {
            svg {
                fill: #0f0f0f;
            }
        }
    </style>
    <g>
        <path d="M26,26H6V6H16V4H6A2.002,2.002,0,0,0,4,6V26a2.002,2.002,0,0,0,2,2H26a2.002,2.002,0,0,0,2-2V16H26Z" />
        <path d="M26,26H6V6H16V4H6A2.002,2.002,0,0,0,4,6V26a2.002,2.002,0,0,0,2,2H26a2.002,2.002,0,0,0,2-2V16H26Z" />
    </g>
    <polygon points="26 6 26 2 24 2 24 6 20 6 20 8 24 8 24 12 26 12 26 8 30 8 30 6 26 6" />
</svg>